<mxfile host="app.diagrams.net" modified="2020-12-29T15:56:56.637Z" agent="5.0 (Windows NT 10.0; WOW64) AppleWebKit/537.36 (KHTML, like Gecko) Chrome/86.0.4240.193 Safari/537.36" etag="ShxIwEB1W3nLT0HeUrK5" version="14.1.3" type="github">
  <diagram id="GfPdDBj2nY77ngwUE2eu" name="第 1 页">
    <mxGraphModel dx="711" dy="655" grid="1" gridSize="10" guides="1" tooltips="1" connect="1" arrows="1" fold="1" page="1" pageScale="1" pageWidth="2336" pageHeight="1654" math="0" shadow="0">
      <root>
        <mxCell id="0" />
        <mxCell id="1" parent="0" />
        <mxCell id="Vk-YHddnxNWAiO7JuI4h-3" style="edgeStyle=orthogonalEdgeStyle;rounded=0;orthogonalLoop=1;jettySize=auto;html=1;" edge="1" parent="1" source="Vk-YHddnxNWAiO7JuI4h-1" target="Vk-YHddnxNWAiO7JuI4h-2">
          <mxGeometry relative="1" as="geometry" />
        </mxCell>
        <mxCell id="Vk-YHddnxNWAiO7JuI4h-1" value="CALL" style="rounded=0;whiteSpace=wrap;html=1;" vertex="1" parent="1">
          <mxGeometry x="290" y="150" width="60" height="40" as="geometry" />
        </mxCell>
        <mxCell id="Vk-YHddnxNWAiO7JuI4h-5" style="edgeStyle=orthogonalEdgeStyle;rounded=0;orthogonalLoop=1;jettySize=auto;html=1;" edge="1" parent="1" source="Vk-YHddnxNWAiO7JuI4h-2" target="Vk-YHddnxNWAiO7JuI4h-4">
          <mxGeometry relative="1" as="geometry" />
        </mxCell>
        <mxCell id="Vk-YHddnxNWAiO7JuI4h-7" style="edgeStyle=orthogonalEdgeStyle;rounded=0;orthogonalLoop=1;jettySize=auto;html=1;fontFamily=Helvetica;fontSize=12;" edge="1" parent="1" source="Vk-YHddnxNWAiO7JuI4h-2" target="Vk-YHddnxNWAiO7JuI4h-6">
          <mxGeometry relative="1" as="geometry" />
        </mxCell>
        <mxCell id="Vk-YHddnxNWAiO7JuI4h-23" style="edgeStyle=orthogonalEdgeStyle;rounded=0;orthogonalLoop=1;jettySize=auto;html=1;entryX=0.5;entryY=0;entryDx=0;entryDy=0;fontFamily=Helvetica;fontSize=12;" edge="1" parent="1" source="Vk-YHddnxNWAiO7JuI4h-2" target="Vk-YHddnxNWAiO7JuI4h-15">
          <mxGeometry relative="1" as="geometry">
            <Array as="points">
              <mxPoint x="460" y="245" />
              <mxPoint x="460" y="500" />
              <mxPoint x="320" y="500" />
            </Array>
          </mxGeometry>
        </mxCell>
        <mxCell id="Vk-YHddnxNWAiO7JuI4h-2" value="op1.id == read ?" style="rhombus;whiteSpace=wrap;html=1;" vertex="1" parent="1">
          <mxGeometry x="255" y="220" width="130" height="50" as="geometry" />
        </mxCell>
        <mxCell id="Vk-YHddnxNWAiO7JuI4h-11" style="edgeStyle=orthogonalEdgeStyle;rounded=0;orthogonalLoop=1;jettySize=auto;html=1;fontFamily=Helvetica;fontSize=12;" edge="1" parent="1" source="Vk-YHddnxNWAiO7JuI4h-4" target="Vk-YHddnxNWAiO7JuI4h-10">
          <mxGeometry relative="1" as="geometry" />
        </mxCell>
        <mxCell id="Vk-YHddnxNWAiO7JuI4h-4" value="op1.id == write?" style="rhombus;whiteSpace=wrap;html=1;" vertex="1" parent="1">
          <mxGeometry x="255" y="300" width="130" height="50" as="geometry" />
        </mxCell>
        <mxCell id="Vk-YHddnxNWAiO7JuI4h-6" value="addi $sp, $sp, -4&#xa;sw $ra,0($sp)&#xa;jal read&#xa;lw $ra,0($sp)&#xa;addi $sp, $sp, 4&#xa;sw $v0, result.offset($sp)" style="rounded=0;whiteSpace=wrap;fontFamily=Helvetica;fontSize=12;" vertex="1" parent="1">
          <mxGeometry x="40" y="280" width="160" height="90" as="geometry" />
        </mxCell>
        <mxCell id="Vk-YHddnxNWAiO7JuI4h-8" value="Y" style="text;html=1;align=center;verticalAlign=middle;resizable=0;points=[];autosize=1;fontSize=12;fontFamily=Helvetica;" vertex="1" parent="1">
          <mxGeometry x="220" y="220" width="20" height="20" as="geometry" />
        </mxCell>
        <mxCell id="Vk-YHddnxNWAiO7JuI4h-9" value="N" style="text;html=1;align=center;verticalAlign=middle;resizable=0;points=[];autosize=1;fontSize=12;fontFamily=Helvetica;" vertex="1" parent="1">
          <mxGeometry x="290" y="270" width="20" height="20" as="geometry" />
        </mxCell>
        <mxCell id="Vk-YHddnxNWAiO7JuI4h-10" value="lw&amp;nbsp;$a0,&amp;nbsp;prior-&amp;gt;result.offset($sp)&lt;br&gt;addi&amp;nbsp;$sp,&amp;nbsp;$sp,&amp;nbsp;-4&lt;br&gt;sw&amp;nbsp;$ra,0($sp)&lt;br&gt;jal&amp;nbsp;write&lt;br&gt;lw&amp;nbsp;$ra,0($sp)&lt;br&gt;addi&amp;nbsp;$sp,&amp;nbsp;$sp,&amp;nbsp;4" style="whiteSpace=wrap;fontFamily=Helvetica;fontSize=12;html=1;" vertex="1" parent="1">
          <mxGeometry x="230" y="380" width="180" height="100" as="geometry" />
        </mxCell>
        <mxCell id="Vk-YHddnxNWAiO7JuI4h-12" value="Y" style="text;html=1;align=center;verticalAlign=middle;resizable=0;points=[];autosize=1;fontSize=12;fontFamily=Helvetica;" vertex="1" parent="1">
          <mxGeometry x="290" y="350" width="20" height="20" as="geometry" />
        </mxCell>
        <mxCell id="Vk-YHddnxNWAiO7JuI4h-17" style="edgeStyle=orthogonalEdgeStyle;rounded=0;orthogonalLoop=1;jettySize=auto;html=1;fontFamily=Helvetica;fontSize=12;" edge="1" parent="1" source="Vk-YHddnxNWAiO7JuI4h-13" target="Vk-YHddnxNWAiO7JuI4h-16">
          <mxGeometry relative="1" as="geometry" />
        </mxCell>
        <mxCell id="Vk-YHddnxNWAiO7JuI4h-25" style="edgeStyle=orthogonalEdgeStyle;rounded=0;orthogonalLoop=1;jettySize=auto;html=1;fontFamily=Helvetica;fontSize=12;" edge="1" parent="1" source="Vk-YHddnxNWAiO7JuI4h-13" target="Vk-YHddnxNWAiO7JuI4h-24">
          <mxGeometry relative="1" as="geometry" />
        </mxCell>
        <mxCell id="Vk-YHddnxNWAiO7JuI4h-13" value="i&amp;lt;symbolTable.symbols[h-&amp;gt;op1.offset].paramnum" style="rhombus;whiteSpace=wrap;fontFamily=Helvetica;fontSize=12;html=1;" vertex="1" parent="1">
          <mxGeometry x="150" y="560" width="340" height="60" as="geometry" />
        </mxCell>
        <mxCell id="Vk-YHddnxNWAiO7JuI4h-21" style="edgeStyle=orthogonalEdgeStyle;rounded=0;orthogonalLoop=1;jettySize=auto;html=1;entryX=0.5;entryY=0;entryDx=0;entryDy=0;fontFamily=Helvetica;fontSize=12;" edge="1" parent="1" source="Vk-YHddnxNWAiO7JuI4h-15" target="Vk-YHddnxNWAiO7JuI4h-13">
          <mxGeometry relative="1" as="geometry" />
        </mxCell>
        <mxCell id="Vk-YHddnxNWAiO7JuI4h-15" value="p = h, i=0" style="whiteSpace=wrap;fontFamily=Helvetica;fontSize=12;html=1;" vertex="1" parent="1">
          <mxGeometry x="275" y="520" width="90" height="20" as="geometry" />
        </mxCell>
        <mxCell id="Vk-YHddnxNWAiO7JuI4h-20" style="edgeStyle=orthogonalEdgeStyle;rounded=0;orthogonalLoop=1;jettySize=auto;html=1;fontFamily=Helvetica;fontSize=12;" edge="1" parent="1" source="Vk-YHddnxNWAiO7JuI4h-16" target="Vk-YHddnxNWAiO7JuI4h-15">
          <mxGeometry relative="1" as="geometry">
            <Array as="points">
              <mxPoint x="80" y="530" />
            </Array>
          </mxGeometry>
        </mxCell>
        <mxCell id="Vk-YHddnxNWAiO7JuI4h-16" value="p=p-&amp;gt;prior&lt;br&gt;i++" style="whiteSpace=wrap;fontFamily=Helvetica;fontSize=12;html=1;" vertex="1" parent="1">
          <mxGeometry x="40" y="570" width="80" height="40" as="geometry" />
        </mxCell>
        <mxCell id="Vk-YHddnxNWAiO7JuI4h-22" value="Y" style="text;html=1;align=center;verticalAlign=middle;resizable=0;points=[];autosize=1;fontSize=12;fontFamily=Helvetica;" vertex="1" parent="1">
          <mxGeometry x="130" y="570" width="20" height="20" as="geometry" />
        </mxCell>
        <mxCell id="Vk-YHddnxNWAiO7JuI4h-28" style="edgeStyle=orthogonalEdgeStyle;rounded=0;orthogonalLoop=1;jettySize=auto;html=1;entryX=0.5;entryY=0;entryDx=0;entryDy=0;fontFamily=Helvetica;fontSize=12;" edge="1" parent="1" source="Vk-YHddnxNWAiO7JuI4h-24" target="Vk-YHddnxNWAiO7JuI4h-27">
          <mxGeometry relative="1" as="geometry" />
        </mxCell>
        <mxCell id="Vk-YHddnxNWAiO7JuI4h-24" value="抬高栈顶，并且将ra压栈保存&lt;br&gt;move&amp;nbsp;$t0,$sp&lt;br&gt;addi&amp;nbsp;$sp,&amp;nbsp;$sp,&amp;nbsp;-symbolTable.symbols[h-&amp;gt;opn1.offset].offset&lt;br&gt;sw&amp;nbsp;$ra,0($sp)" style="whiteSpace=wrap;fontFamily=Helvetica;fontSize=12;html=1;" vertex="1" parent="1">
          <mxGeometry x="145" y="650" width="350" height="70" as="geometry" />
        </mxCell>
        <mxCell id="Vk-YHddnxNWAiO7JuI4h-26" value="找到函数调用的首个参数" style="text;html=1;align=center;verticalAlign=middle;resizable=0;points=[];autosize=1;fontSize=12;fontFamily=Helvetica;" vertex="1" parent="1">
          <mxGeometry x="385" y="550" width="150" height="20" as="geometry" />
        </mxCell>
        <mxCell id="Vk-YHddnxNWAiO7JuI4h-30" style="edgeStyle=orthogonalEdgeStyle;rounded=0;orthogonalLoop=1;jettySize=auto;html=1;entryX=0.5;entryY=0;entryDx=0;entryDy=0;fontFamily=Helvetica;fontSize=12;" edge="1" parent="1" source="Vk-YHddnxNWAiO7JuI4h-27" target="Vk-YHddnxNWAiO7JuI4h-29">
          <mxGeometry relative="1" as="geometry" />
        </mxCell>
        <mxCell id="Vk-YHddnxNWAiO7JuI4h-27" value="i=h-&amp;gt;opn1.offset+1" style="whiteSpace=wrap;fontFamily=Helvetica;fontSize=12;html=1;" vertex="1" parent="1">
          <mxGeometry x="260" y="750" width="120" height="30" as="geometry" />
        </mxCell>
        <mxCell id="Vk-YHddnxNWAiO7JuI4h-34" style="edgeStyle=orthogonalEdgeStyle;rounded=0;orthogonalLoop=1;jettySize=auto;html=1;entryX=1;entryY=0.5;entryDx=0;entryDy=0;fontFamily=Helvetica;fontSize=12;" edge="1" parent="1" source="Vk-YHddnxNWAiO7JuI4h-29" target="Vk-YHddnxNWAiO7JuI4h-33">
          <mxGeometry relative="1" as="geometry" />
        </mxCell>
        <mxCell id="Vk-YHddnxNWAiO7JuI4h-29" value="symbolTable.symbols[i].flag==&#39;P&#39;" style="rhombus;whiteSpace=wrap;fontFamily=Helvetica;fontSize=12;" vertex="1" parent="1">
          <mxGeometry x="195" y="802" width="250" height="50" as="geometry" />
        </mxCell>
        <mxCell id="Vk-YHddnxNWAiO7JuI4h-31" value="N" style="text;html=1;align=center;verticalAlign=middle;resizable=0;points=[];autosize=1;fontSize=12;fontFamily=Helvetica;" vertex="1" parent="1">
          <mxGeometry x="330" y="620" width="20" height="20" as="geometry" />
        </mxCell>
        <mxCell id="Vk-YHddnxNWAiO7JuI4h-35" style="edgeStyle=orthogonalEdgeStyle;rounded=0;orthogonalLoop=1;jettySize=auto;html=1;entryX=0;entryY=0.5;entryDx=0;entryDy=0;fontFamily=Helvetica;fontSize=12;" edge="1" parent="1" source="Vk-YHddnxNWAiO7JuI4h-33" target="Vk-YHddnxNWAiO7JuI4h-27">
          <mxGeometry relative="1" as="geometry">
            <Array as="points">
              <mxPoint x="95" y="765" />
            </Array>
          </mxGeometry>
        </mxCell>
        <mxCell id="Vk-YHddnxNWAiO7JuI4h-33" value="p=p-&amp;gt;next; i++;" style="whiteSpace=wrap;fontFamily=Helvetica;fontSize=12;html=1;" vertex="1" parent="1">
          <mxGeometry x="45" y="812" width="100" height="30" as="geometry" />
        </mxCell>
        <mxCell id="Vk-YHddnxNWAiO7JuI4h-36" value="Y" style="text;html=1;align=center;verticalAlign=middle;resizable=0;points=[];autosize=1;fontSize=12;fontFamily=Helvetica;" vertex="1" parent="1">
          <mxGeometry x="170" y="802" width="20" height="20" as="geometry" />
        </mxCell>
      </root>
    </mxGraphModel>
  </diagram>
</mxfile>
